<svg xmlns="http://www.w3.org/2000/svg" viewBox="0 0 128 128" width="128" height="128">
  <circle cx="64" cy="64" r="60" fill="#0a0e0f" stroke="#ff6b35" stroke-width="2.5"/>
  <rect x="18" y="52" width="22" height="45" fill="#1a2628" stroke="#ff6b35" stroke-width="1.5"/>
  <rect x="18" y="44" width="5" height="10" fill="#1a2628" stroke="#ff6b35" stroke-width="1.5"/>
  <rect x="26" y="44" width="5" height="10" fill="#1a2628" stroke="#ff6b35" stroke-width="1.5"/>
  <rect x="34" y="44" width="5" height="10" fill="#1a2628" stroke="#ff6b35" stroke-width="1.5"/>
  <rect x="88" y="52" width="22" height="45" fill="#1a2628" stroke="#ff6b35" stroke-width="1.5"/>
  <rect x="88" y="44" width="5" height="10" fill="#1a2628" stroke="#ff6b35" stroke-width="1.5"/>
  <rect x="96" y="44" width="5" height="10" fill="#1a2628" stroke="#ff6b35" stroke-width="1.5"/>
  <rect x="104" y="44" width="5" height="10" fill="#1a2628" stroke="#ff6b35" stroke-width="1.5"/>
  <rect x="40" y="65" width="48" height="32" fill="#1a2628" stroke="#ff6b35" stroke-width="1.5"/>
  <rect x="40" y="57" width="5" height="10" fill="#1a2628" stroke="#ff6b35" stroke-width="1.5"/>
  <rect x="49" y="57" width="5" height="10" fill="#1a2628" stroke="#ff6b35" stroke-width="1.5"/>
  <rect x="58" y="57" width="5" height="10" fill="#1a2628" stroke="#ff6b35" stroke-width="1.5"/>
  <rect x="67" y="57" width="5" height="10" fill="#1a2628" stroke="#ff6b35" stroke-width="1.5"/>
  <rect x="76" y="57" width="5" height="10" fill="#1a2628" stroke="#ff6b35" stroke-width="1.5"/>
  <path d="M52 97 L52 78 Q64 68 76 78 L76 97 Z" fill="#0a0e0f" stroke="#ff6b35" stroke-width="1.5"/>
  <circle cx="64" cy="36" r="12" fill="#0a0e0f" stroke="#ff6b35" stroke-width="1.5"/>
  <circle cx="64" cy="36" r="7" fill="#ff6b35" opacity="0.08"/>
  <circle cx="64" cy="36" r="4" fill="#ff6b35" opacity="0.2"/>
  <path d="M64 30 L64 36" stroke="#ff6b35" stroke-width="2" stroke-linecap="round"/>
  <path d="M59 32 A7 7 0 1 0 69 32" stroke="#ff6b35" stroke-width="2" fill="none" stroke-linecap="round"/>
  <rect x="24" y="62" width="8" height="10" rx="1" fill="#1a2628" opacity="0.8"/>
  <rect x="96" y="62" width="8" height="10" rx="1" fill="#1a2628" opacity="0.8"/>
  <line x1="8" y1="97" x2="120" y2="97" stroke="#ff6b35" stroke-width="1" opacity="0.3"/>
</svg>
