<svg xmlns="http://www.w3.org/2000/svg" viewBox="0 0 128 128" width="128" height="128">
  <circle cx="64" cy="64" r="60" fill="#0a0e0f" stroke="#00e5cc" stroke-width="2.5"/>
  <rect x="18" y="52" width="22" height="45" fill="#1a2628" stroke="#00e5cc" stroke-width="1.5"/>
  <rect x="18" y="44" width="5" height="10" fill="#1a2628" stroke="#00e5cc" stroke-width="1.5"/>
  <rect x="26" y="44" width="5" height="10" fill="#1a2628" stroke="#00e5cc" stroke-width="1.5"/>
  <rect x="34" y="44" width="5" height="10" fill="#1a2628" stroke="#00e5cc" stroke-width="1.5"/>
  <rect x="88" y="52" width="22" height="45" fill="#1a2628" stroke="#00e5cc" stroke-width="1.5"/>
  <rect x="88" y="44" width="5" height="10" fill="#1a2628" stroke="#00e5cc" stroke-width="1.5"/>
  <rect x="96" y="44" width="5" height="10" fill="#1a2628" stroke="#00e5cc" stroke-width="1.5"/>
  <rect x="104" y="44" width="5" height="10" fill="#1a2628" stroke="#00e5cc" stroke-width="1.5"/>
  <rect x="40" y="65" width="48" height="32" fill="#1a2628" stroke="#00e5cc" stroke-width="1.5"/>
  <rect x="40" y="57" width="5" height="10" fill="#1a2628" stroke="#00e5cc" stroke-width="1.5"/>
  <rect x="49" y="57" width="5" height="10" fill="#1a2628" stroke="#00e5cc" stroke-width="1.5"/>
  <rect x="58" y="57" width="5" height="10" fill="#1a2628" stroke="#00e5cc" stroke-width="1.5"/>
  <rect x="67" y="57" width="5" height="10" fill="#1a2628" stroke="#00e5cc" stroke-width="1.5"/>
  <rect x="76" y="57" width="5" height="10" fill="#1a2628" stroke="#00e5cc" stroke-width="1.5"/>
  <path d="M52 97 L52 78 Q64 68 76 78 L76 97 Z" fill="#0a0e0f" stroke="#00e5cc" stroke-width="1.5"/>
  <circle cx="64" cy="36" r="12" fill="#0a0e0f" stroke="#00e5cc" stroke-width="1.5"/>
  <circle cx="64" cy="36" r="7" fill="#00e5cc" opacity="0.15"/>
  <circle cx="64" cy="36" r="4" fill="#00e5cc" opacity="0.6"/>
  <circle cx="64" cy="36" r="2" fill="#ffffff" opacity="0.9"/>
  <line x1="64" y1="20" x2="64" y2="16" stroke="#00e5cc" stroke-width="1.5" opacity="0.5"/>
  <line x1="75" y1="25" x2="78" y2="22" stroke="#00e5cc" stroke-width="1.5" opacity="0.5"/>
  <line x1="53" y1="25" x2="50" y2="22" stroke="#00e5cc" stroke-width="1.5" opacity="0.5"/>
  <rect x="24" y="62" width="8" height="10" rx="1" fill="#f4d03f" opacity="0.7"/>
  <rect x="96" y="62" width="8" height="10" rx="1" fill="#f4d03f" opacity="0.7"/>
  <line x1="8" y1="97" x2="120" y2="97" stroke="#00e5cc" stroke-width="1" opacity="0.3"/>
</svg>
